<?xml version="1.0" encoding="UTF-8" standalone="no"?>
<!-- Created with Inkscape (http://www.inkscape.org/) -->

<svg
   xmlns:dc="http://purl.org/dc/elements/1.1/"
   xmlns:cc="http://creativecommons.org/ns#"
   xmlns:rdf="http://www.w3.org/1999/02/22-rdf-syntax-ns#"
   xmlns:svg="http://www.w3.org/2000/svg"
   xmlns="http://www.w3.org/2000/svg"
   xmlns:sodipodi="http://sodipodi.sourceforge.net/DTD/sodipodi-0.dtd"
   xmlns:inkscape="http://www.inkscape.org/namespaces/inkscape"
   width="79.550385mm"
   height="115.78947mm"
   viewBox="0 0 79.550385 115.78947"
   version="1.1"
   id="svg8"
   inkscape:version="0.92.1 r15371"
   sodipodi:docname="INPS.svg">
  <defs
     id="defs2" />
  <sodipodi:namedview
     id="base"
     pagecolor="#ffffff"
     bordercolor="#666666"
     borderopacity="1.0"
     inkscape:pageopacity="0.0"
     inkscape:pageshadow="2"
     inkscape:zoom="0.7"
     inkscape:cx="161.24661"
     inkscape:cy="1.4109308"
     inkscape:document-units="mm"
     inkscape:current-layer="layer1"
     showgrid="false"
     inkscape:window-width="1600"
     inkscape:window-height="837"
     inkscape:window-x="-8"
     inkscape:window-y="-8"
     inkscape:window-maximized="1"
     fit-margin-top="0"
     fit-margin-left="0"
     fit-margin-right="0"
     fit-margin-bottom="0" />
  <metadata
     id="metadata5">
    <rdf:RDF>
      <cc:Work
         rdf:about="">
        <dc:format>image/svg+xml</dc:format>
        <dc:type
           rdf:resource="http://purl.org/dc/dcmitype/StillImage" />
        <dc:title></dc:title>
      </cc:Work>
    </rdf:RDF>
  </metadata>
  <g
     inkscape:label="Livello 1"
     inkscape:groupmode="layer"
     id="layer1"
     transform="translate(-32.040277,-35.012605)">
    <path
       style="fill:#007db3;fill-opacity:1;stroke-width:0.0553509"
       d="m 57.676838,149.84761 c -0.216758,-0.54413 -0.394121,-1.00249 -0.394121,-1.01856 0,-0.0161 -0.05374,-0.14959 -0.119375,-0.29671 -0.06564,-0.14713 -0.125258,-0.29595 -0.132606,-0.33072 -0.0078,-0.0348 -0.125521,-0.34611 -0.262795,-0.69189 -0.63457,-1.59892 -0.878262,-2.2207 -1.081579,-2.75968 -0.120551,-0.31965 -0.259369,-0.67447 -0.308413,-0.78849 -0.04903,-0.11401 -0.08773,-0.21364 -0.08603,-0.2214 0.0013,-0.008 -0.07204,-0.19643 -0.163882,-0.4193 -0.09192,-0.22285 -0.174002,-0.44702 -0.182462,-0.49816 -0.0078,-0.0511 -0.02811,-0.10538 -0.04354,-0.12068 -0.01556,-0.0152 -0.08551,-0.17711 -0.15554,-0.35977 -0.07008,-0.18266 -0.16081,-0.40683 -0.201695,-0.49816 -0.08433,-0.18849 -0.150925,-0.36146 -0.170316,-0.44281 -0.01308,-0.0539 -0.42954,-1.10723 -0.525498,-1.32842 -0.02641,-0.0609 -0.250569,-0.63377 -0.498119,-1.27308 -0.247549,-0.6393 -0.541776,-1.39899 -0.653829,-1.68819 -0.112053,-0.28921 -0.227662,-0.56319 -0.256885,-0.60887 -0.02929,-0.0456 -0.05374,-0.10786 -0.05465,-0.13837 -7.98e-4,-0.0305 -0.118329,-0.35424 -0.26103,-0.71956 -0.142766,-0.36531 -0.349613,-0.90084 -0.459665,-1.19005 -0.110092,-0.2892 -0.234488,-0.60094 -0.276524,-0.69271 -0.189143,-0.41296 -0.197328,-0.46414 -0.08394,-0.52482 0.05884,-0.0315 0.349063,-0.10708 0.645108,-0.16793 0.296031,-0.0609 0.627012,-0.13485 0.735496,-0.16429 0.394538,-0.10709 2.93117,-0.71698 3.11154,-0.74813 0.101985,-0.0177 0.322365,-0.0694 0.48979,-0.11519 0.167439,-0.0458 0.366702,-0.0953 0.442812,-0.10996 0.0761,-0.0148 0.474636,-0.11257 0.88561,-0.21733 0.410987,-0.10486 0.813658,-0.20217 0.894828,-0.21633 0.0812,-0.0141 0.454775,-0.10054 0.830264,-0.19203 1.813531,-0.44169 3.736735,-0.89967 4.335833,-1.0325 0.365315,-0.0809 0.687876,-0.16964 0.716798,-0.19702 0.0289,-0.0273 0.109046,-0.0498 0.178003,-0.0498 0.136621,0 1.388528,-0.29015 1.789722,-0.41479 0.137,-0.0425 0.336263,-0.0902 0.442812,-0.10591 0.106561,-0.0157 0.613322,-0.13049 1.126164,-0.25511 0.512841,-0.1246 0.963498,-0.219 1.001481,-0.20973 0.0438,0.0105 -0.270562,0.70462 -0.859225,1.89677 -0.510553,1.03394 -0.916153,1.89949 -0.901352,1.92345 0.01477,0.0239 0.0052,0.0435 -0.02157,0.0435 -0.07871,0 -0.747878,1.43119 -0.712432,1.52358 0.01791,0.0465 0.151278,0.13366 0.296529,0.19374 0.14525,0.0601 0.308701,0.13499 0.36321,0.16647 0.05452,0.0315 0.12016,0.0442 0.145944,0.0282 0.02576,-0.016 0.07766,0.008 0.115191,0.0535 0.03766,0.0454 0.09858,0.0824 0.135378,0.0824 0.03687,0 0.338905,0.11349 0.671272,0.25219 0.332354,0.1387 0.940551,0.3769 1.351525,0.52931 0.410987,0.15242 0.834422,0.31078 0.94097,0.35192 0.715962,0.2764 0.957,0.36468 1.04017,0.38096 0.05204,0.0105 0.156796,0.0437 0.232892,0.0745 0.38302,0.15486 1.666686,0.56984 1.762696,0.56984 0.06054,0 0.118328,0.019 0.128527,0.0422 0.01791,0.0409 0.681025,0.27066 0.904072,0.3132 0.06093,0.0118 0.210325,0.0575 0.332106,0.10198 0.247601,0.0905 0.971303,0.3128 1.120751,0.34435 0.05335,0.0118 0.346043,0.0995 0.650469,0.19619 0.559401,0.17761 0.908321,0.27264 0.965237,0.26291 0.01713,-0.003 0.06838,0.0105 0.114145,0.0296 0.285597,0.1199 2.163745,0.60155 3.570133,0.91545 0.273987,0.0612 0.72233,0.16138 0.996317,0.22274 1.296178,0.29025 3.145797,0.62495 4.455756,0.80627 0.350097,0.0485 0.808677,0.11323 1.01908,0.14387 1.004371,0.1464 3.204386,0.33085 4.633434,0.38847 1.630454,0.0658 4.200401,0.009 5.25162,-0.11585 2.66996,-0.30263 5.37147,-0.52425 6.43366,-2.59796 0.63448,-1.2398 0.75703,-2.63829 0.40517,-4.62351 -0.0485,-0.27399 -0.10395,-0.53553 -0.12317,-0.58119 -0.0192,-0.0456 -0.042,-0.12042 -0.0507,-0.16605 -0.0173,-0.091 -0.0881,-0.33444 -0.25786,-0.88561 -0.13508,-0.4387 -0.53728,-1.39578 -0.69782,-1.66053 -0.0646,-0.10656 -0.14003,-0.24442 -0.16762,-0.30638 -0.15962,-0.35856 -1.37017,-1.96272 -1.64318,-2.17748 -0.074,-0.0582 -0.13462,-0.12787 -0.13462,-0.15466 0,-0.075 -0.80397,-0.85643 -0.84201,-0.81839 -0.0184,0.0184 -0.0497,-0.0118 -0.0696,-0.0675 -0.0197,-0.0556 -0.24451,-0.2754 -0.499383,-0.4885 -0.25486,-0.21309 -0.54607,-0.45844 -0.64711,-0.54522 -0.29399,-0.25247 -0.808782,-0.64482 -0.846033,-0.64482 -0.01883,0 -0.0876,-0.0498 -0.15303,-0.11075 -0.06538,-0.0609 -0.151487,-0.11075 -0.191405,-0.11075 -0.03988,0 -0.07257,-0.0226 -0.07257,-0.0503 0,-0.0437 -0.6938,-0.53681 -0.863566,-0.61386 -0.0336,-0.0152 -0.207893,-0.12578 -0.387452,-0.24566 -0.492954,-0.32913 -0.664381,-0.43479 -1.26744,-0.7812 -0.757998,-0.43541 -2.412027,-1.29171 -2.988949,-1.54739 -0.692753,-0.307 -0.988092,-0.46488 -0.91329,-0.48824 0.103554,-0.0323 1.875232,-0.44581 2.435431,-0.56841 0.228329,-0.0499 0.614396,-0.14013 0.857944,-0.20038 0.243548,-0.0603 0.505075,-0.12016 0.581184,-0.13303 0.0761,-0.0131 0.287821,-0.0578 0.470479,-0.0999 0.182658,-0.042 0.568737,-0.12997 0.857943,-0.19555 0.289207,-0.0655 0.737549,-0.16996 0.996317,-0.23207 0.258767,-0.0621 0.532754,-0.12369 0.608864,-0.13691 0.0761,-0.0132 0.175728,-0.039 0.221399,-0.0574 0.04563,-0.0183 0.148464,-0.042 0.228464,-0.0526 0.08,-0.0105 0.21201,-0.0445 0.29339,-0.0754 0.13298,-0.0506 0.14568,-0.079 0.12552,-0.28104 -0.0118,-0.12369 -0.051,-0.2533 -0.0859,-0.28813 -0.0348,-0.0349 -0.0633,-0.0965 -0.0633,-0.13708 0,-0.0405 -0.0411,-0.16634 -0.0911,-0.27953 -0.0501,-0.11323 -0.099,-0.2307 -0.10853,-0.26114 -0.0795,-0.25402 -0.246566,-0.7078 -0.280796,-0.76257 -0.02327,-0.0373 -0.04772,-0.10408 -0.05452,-0.14841 -0.0065,-0.0445 -0.0506,-0.16895 -0.09754,-0.27676 -0.118851,-0.27318 -0.212364,-0.51614 -0.228682,-0.59417 -0.03569,-0.17047 -0.384287,-1.04311 -0.423277,-1.05943 -0.02419,-0.0105 -0.04406,-0.0679 -0.04406,-0.1284 0,-0.0604 -0.071,-0.28878 -0.157789,-0.50737 -0.177873,-0.44804 -0.304779,-0.78311 -0.569796,-1.50447 -0.100678,-0.27398 -0.196073,-0.51062 -0.212038,-0.52583 -0.01595,-0.0152 -0.03766,-0.0775 -0.04825,-0.13838 -0.01046,-0.0609 -0.05779,-0.19788 -0.104992,-0.30442 -0.0472,-0.10656 -0.09506,-0.2416 -0.106431,-0.30009 -0.01177,-0.0584 -0.04354,-0.13385 -0.07139,-0.16744 -0.02785,-0.0336 -0.05962,-0.12277 -0.07061,-0.19807 -0.01046,-0.0753 -0.05191,-0.19517 -0.09113,-0.26627 -0.0391,-0.0711 -0.05727,-0.14317 -0.04027,-0.16015 0.017,-0.017 0.04655,0.0105 0.06564,0.0598 0.01909,0.0498 0.05727,0.0767 0.08473,0.0597 0.02746,-0.017 0.06485,0.008 0.08303,0.0553 0.01817,0.0475 0.05518,0.0726 0.08211,0.056 0.02693,-0.0166 0.164928,0.0582 0.306583,0.16636 0.141667,0.10814 0.274562,0.19668 0.295312,0.19668 0.02079,0 0.184815,0.10996 0.364558,0.24448 0.179742,0.13445 0.345991,0.23261 0.369434,0.21813 0.0234,-0.0145 0.04263,-0.004 0.04263,0.0247 0,0.0281 0.105777,0.12303 0.235154,0.21083 0.377358,0.25635 1.56058,1.14408 1.59761,1.19866 0.0187,0.0275 0.051,0.0463 0.072,0.0418 0.0211,-0.004 0.130233,0.0681 0.242893,0.16125 0.5895,0.48741 0.89661,0.73 0.89661,0.70826 0,-0.0133 0.14321,0.10865 0.31826,0.27112 0.17505,0.16247 0.33599,0.29577 0.35762,0.29623 0.0216,5.6e-4 0.084,0.0471 0.13838,0.10356 0.0545,0.0565 0.31074,0.28279 0.56951,0.50291 0.85815,0.72997 1.1082,0.96276 2.26278,2.10656 1.24183,1.23024 1.53623,1.54697 2.3942,2.57571 0.10237,0.12278 0.21758,0.25981 0.2559,0.30444 0.0383,0.0446 0.17513,0.21812 0.304,0.38556 0.12892,0.16743 0.28021,0.35424 0.33631,0.41513 0.087,0.0944 0.65706,0.911 0.92286,1.32193 0.0456,0.0706 0.1233,0.18813 0.17254,0.26115 0.18479,0.27411 0.76843,1.28462 0.76843,1.33046 0,0.0263 0.029,0.0477 0.0646,0.0477 0.0356,0 0.05,0.0146 0.0322,0.0324 -0.0178,0.0178 0.051,0.17475 0.15299,0.34873 0.10198,0.17397 0.20351,0.38979 0.22566,0.47959 0.0221,0.0898 0.0711,0.2131 0.10878,0.27399 0.0377,0.0609 0.0866,0.17296 0.10866,0.24907 0.0221,0.0761 0.0668,0.17159 0.0994,0.21219 0.0326,0.0405 0.065,0.11532 0.072,0.16605 0.007,0.0507 0.0782,0.2666 0.15823,0.47969 0.08,0.21311 0.15424,0.42483 0.16502,0.4705 0.0105,0.0456 0.0744,0.29473 0.14145,0.5535 0.29674,1.14565 0.42795,2.89243 0.27857,3.70851 -0.0306,0.16744 -0.066,0.39161 -0.0786,0.49816 -1.32986,5.00606 -6.01475,8.98342 -10.10848,11.34481 -0.0761,0.0526 -0.33744,0.20526 -0.58074,0.33949 -0.24329,0.13424 -0.49237,0.27234 -0.5535,0.3069 -0.457643,0.25871 -2.579773,1.28648 -2.687916,1.30177 -0.07453,0.0105 -0.160339,0.0473 -0.190791,0.0817 -0.03047,0.0344 -0.39161,0.19189 -0.802584,0.35005 -0.410987,0.15815 -0.829126,0.32468 -0.929189,0.37006 -0.100024,0.0454 -0.224616,0.0914 -0.276759,0.10212 -0.05217,0.0105 -0.343873,0.10512 -0.648311,0.20947 -0.498995,0.17113 -0.757083,0.25282 -1.881927,0.59567 -0.439504,0.13396 -1.857999,0.48892 -2.118663,0.53017 -0.11336,0.0179 -0.225165,0.0443 -0.248503,0.0586 -0.02327,0.0144 -0.110484,0.0374 -0.193733,0.0514 -0.08316,0.0139 -0.325646,0.0605 -0.538756,0.10368 -0.989517,0.20029 -1.702106,0.31618 -2.573817,0.41861 -0.258768,0.0303 -0.504055,0.0675 -0.545085,0.0825 -0.07675,0.028 -0.177545,0.0396 -1.170789,0.13564 -3.299154,0.31896 -7.207028,0.29722 -10.793427,-0.06 -0.624084,-0.0622 -1.246782,-0.12186 -1.383782,-0.13253 -0.136987,-0.0105 -0.485697,-0.0571 -0.774904,-0.10316 -0.289206,-0.046 -0.650377,-0.0975 -0.802596,-0.1144 -0.152207,-0.0169 -0.401286,-0.055 -0.553505,-0.0849 -0.15222,-0.0298 -0.538286,-0.0941 -0.857944,-0.14294 -0.319645,-0.0489 -0.767987,-0.12395 -0.996316,-0.16695 -1.390437,-0.26162 -1.893772,-0.35953 -2.214032,-0.43067 -0.197877,-0.0439 -0.39714,-0.0807 -0.442811,-0.0816 -0.04563,-9.4e-4 -0.220014,-0.0373 -0.387452,-0.0808 -0.167439,-0.0434 -0.441426,-0.10852 -0.608865,-0.14446 -0.167425,-0.036 -0.441412,-0.10121 -0.608851,-0.14486 -0.167439,-0.0437 -0.603334,-0.15323 -0.96865,-0.24342 -0.937374,-0.23143 -2.090852,-0.53345 -2.545954,-0.66662 -0.659517,-0.19297 -0.604197,-0.2298 -1.098118,0.73111 -0.863409,1.67976 -1.697282,3.35429 -1.697282,3.4084 0,0.0305 -0.02628,0.0641 -0.05831,0.0748 -0.03216,0.0105 -0.06459,0.0564 -0.07217,0.10147 -0.0078,0.0451 -0.05661,0.1627 -0.108784,0.26133 -0.05217,0.0986 -0.09362,0.1929 -0.09192,0.20954 0.0013,0.0166 -0.03517,0.0685 -0.08185,0.11519 -0.04681,0.0468 -0.08499,0.11911 -0.08499,0.16081 0,0.26707 -0.146479,0.0131 -0.491503,-0.85336 z m -5.541755,-7.41648 c -0.532742,-0.26915 -1.080716,-0.55297 -1.217716,-0.6307 -0.136987,-0.0777 -0.33625,-0.18519 -0.442811,-0.23881 -0.427383,-0.21509 -2.46791,-1.37718 -2.536253,-1.44442 -0.04027,-0.0396 -0.09859,-0.0719 -0.129835,-0.0719 -0.03112,0 -0.282865,-0.13845 -0.559323,-0.30768 -0.276471,-0.16923 -0.526531,-0.31245 -0.555714,-0.31826 -0.02916,-0.005 -0.115584,-0.0667 -0.192033,-0.13513 -0.07649,-0.0685 -0.172721,-0.12447 -0.213934,-0.12447 -0.04119,0 -0.07492,-0.0203 -0.07492,-0.0451 0,-0.0248 -0.08094,-0.0873 -0.1799,-0.13891 -0.19772,-0.10316 -1.099465,-0.68083 -1.505483,-0.96453 -0.141603,-0.099 -0.271294,-0.17989 -0.2882,-0.17989 -0.01687,0 -0.104731,-0.0622 -0.195197,-0.13837 -0.09048,-0.0761 -0.199904,-0.13837 -0.243234,-0.13837 -0.04328,0 -0.07871,-0.025 -0.07871,-0.0553 0,-0.0305 -0.03609,-0.0553 -0.08028,-0.0553 -0.04419,0 -0.100154,-0.0322 -0.124474,-0.0714 -0.02432,-0.0392 -0.206167,-0.1803 -0.404044,-0.31341 -0.318756,-0.21441 -0.615689,-0.42603 -0.968636,-0.6903 -0.491412,-0.36796 -0.641474,-0.47469 -0.667336,-0.47469 -0.01647,0 -0.08721,-0.0618 -0.157253,-0.13749 -0.07008,-0.0756 -0.143603,-0.1212 -0.163412,-0.10146 -0.01974,0.0197 -0.03596,0.007 -0.03596,-0.0286 0,-0.0356 -0.0374,-0.0646 -0.08303,-0.0646 -0.04563,0 -0.08303,-0.0224 -0.08303,-0.0497 0,-0.0273 -0.24228,-0.23284 -0.538403,-0.45664 -0.296123,-0.22381 -0.578007,-0.44428 -0.626411,-0.48994 -0.408176,-0.38504 -0.731024,-0.66812 -0.774303,-0.67893 -0.09022,-0.0225 -0.987582,-0.86396 -1.963122,-1.84071 -0.797811,-0.79882 -1.484969,-1.5694 -2.199035,-2.46602 -0.401168,-0.50371 -1.067008,-1.50186 -1.333555,-1.99908 -0.109176,-0.20367 -0.223949,-0.41538 -0.255028,-0.47048 -0.106039,-0.18783 -0.578531,-1.20699 -0.590285,-1.27308 -0.0183,-0.1029 -0.1441,-0.48148 -0.180422,-0.54298 -0.01791,-0.0305 -0.03687,-0.0803 -0.0421,-0.11075 -0.0052,-0.0305 -0.05295,-0.21725 -0.106169,-0.41513 -0.250583,-0.93131 -0.384,-2.43269 -0.255708,-2.87752 0.03086,-0.10696 0.08564,-0.37897 0.121859,-0.60448 0.1046,-0.65277 0.609636,-2.06139 0.855067,-2.38521 0.03465,-0.0456 0.169165,-0.25738 0.299026,-0.47047 0.273359,-0.44862 0.392329,-0.61874 0.697377,-0.99722 0.121728,-0.15108 0.246307,-0.3067 0.276759,-0.34582 0.115714,-0.14863 1.358402,-1.37663 1.553612,-1.53521 0.112446,-0.0914 0.323372,-0.26568 0.468766,-0.38746 0.334224,-0.27991 0.808455,-0.62798 1.547755,-1.13596 0.319645,-0.21963 0.593632,-0.41507 0.608851,-0.43427 0.0153,-0.0192 0.06132,-0.042 0.102378,-0.0506 0.04106,-0.009 0.215463,-0.1067 0.387465,-0.2179 0.171989,-0.11127 0.437255,-0.268 0.589461,-0.34843 0.152219,-0.0804 0.388851,-0.20928 0.525838,-0.28635 0.604667,-0.34013 2.621057,-1.37334 2.680196,-1.37334 0.01046,0 0.257682,-0.11206 0.548889,-0.24908 0.291193,-0.137 0.542417,-0.24908 0.558277,-0.24908 0.01582,0 0.160273,-0.0599 0.320926,-0.13312 0.632138,-0.28807 0.94416,-0.4204 0.991283,-0.4204 0.02707,0 0.15486,-0.049 0.283911,-0.10905 0.253825,-0.11806 1.141213,-0.44631 1.670032,-0.61787 0.180606,-0.0586 0.361185,-0.13376 0.401286,-0.16703 0.04014,-0.0333 0.07296,-0.0454 0.07296,-0.0269 0,0.0186 0.130777,-0.0183 0.290593,-0.0817 0.159829,-0.0634 0.351116,-0.12669 0.425095,-0.14045 0.074,-0.0139 0.161149,-0.0418 0.193732,-0.0622 0.03256,-0.0204 0.09479,-0.0425 0.138373,-0.049 0.04354,-0.007 0.317514,-0.0853 0.608864,-0.17469 0.291338,-0.0894 0.691616,-0.2061 0.889494,-0.25912 0.45114,-0.12082 0.887937,-0.248 0.996316,-0.28999 0.04563,-0.0177 0.1046,-0.0272 0.131012,-0.0212 0.02641,0.007 0.126958,-0.0152 0.223635,-0.0471 0.19049,-0.0629 0.479317,-0.1301 1.65973,-0.38601 0.422937,-0.0917 0.816273,-0.18176 0.874078,-0.20011 0.05779,-0.0183 0.197458,-0.0441 0.310348,-0.0573 0.112838,-0.0131 0.466804,-0.0735 0.786462,-0.13399 1.110331,-0.2104 3.839976,-0.55684 5.009249,-0.63575 1.704394,-0.11506 2.2241,-0.13953 3.65316,-0.17226 2.903255,-0.0664 7.469705,0.22594 10.018523,0.64153 0.182658,0.0298 0.456645,0.0659 0.608851,0.0802 0.152219,0.0143 0.63793,0.0914 1.079343,0.17137 0.441425,0.0799 1.00186,0.17887 1.245395,0.21983 0.515077,0.0867 1.966339,0.3925 3.155002,0.66492 0.789143,0.18086 1.184165,0.27945 2.131019,0.53186 0.228316,0.0608 0.557492,0.1461 0.731481,0.18939 0.174003,0.0433 0.572529,0.15643 0.885624,0.2514 0.313094,0.0949 0.76851,0.23026 1.012058,0.30066 0.243549,0.0703 0.791523,0.24308 1.217716,0.38376 0.426206,0.14068 0.812285,0.26191 0.857943,0.26939 0.04563,0.008 0.107869,0.0292 0.138373,0.0482 0.03047,0.019 0.267071,0.10892 0.525838,0.19975 0.501728,0.17611 0.830604,0.29972 1.7989,0.67615 0.891677,0.34664 1.152236,0.43857 1.248652,0.4406 0.05308,0.001 0.160848,-0.15232 0.280419,-0.39949 0.159032,-0.32868 1.048277,-2.06116 1.399223,-2.72603 0.04825,-0.0913 0.08787,-0.19719 0.088,-0.23524 0,-0.038 0.01909,-0.0694 0.04184,-0.0696 0.02288,0 0.228329,-0.38477 0.456645,-0.85452 0.228329,-0.46974 0.427593,-0.85521 0.442812,-0.85657 0.01517,-0.001 0.08564,0.14032 0.156469,0.31485 0.07087,0.17452 0.160705,0.39204 0.199708,0.48337 0.03896,0.0914 0.200884,0.50231 0.359733,0.91329 0.158848,0.41098 0.311538,0.79705 0.339309,0.85794 0.02772,0.0609 0.172512,0.43451 0.321672,0.83026 0.286042,0.75897 0.575549,1.49376 0.697853,1.77124 0.04027,0.0913 0.265475,0.66421 0.500472,1.27306 0.235011,0.60886 0.509259,1.30629 0.60944,1.54983 0.100155,0.24354 0.311761,0.77907 0.470191,1.19004 0.400631,1.03928 0.44808,1.16015 0.554158,1.41145 0.05138,0.12173 0.138935,0.34595 0.194504,0.49816 0.05557,0.15222 0.13075,0.32657 0.166929,0.38746 0.03622,0.0609 0.08146,0.17803 0.100547,0.26032 0.03203,0.13839 0.01909,0.15228 -0.17331,0.18465 -0.114406,0.0192 -0.45705,0.0954 -0.761476,0.1694 -0.304425,0.0739 -0.628228,0.14605 -0.719557,0.1603 -0.09139,0.0143 -0.552132,0.11506 -1.023996,0.22416 -0.471865,0.10904 -0.920207,0.21014 -0.996317,0.22467 -0.339505,0.0647 -2.626875,0.58455 -2.658543,0.60413 -0.01935,0.0118 -0.107869,0.0346 -0.196687,0.0503 -0.08878,0.0157 -0.447833,0.0936 -0.797929,0.17331 -0.350097,0.0796 -0.6739,0.15271 -0.719558,0.1624 -0.270457,0.0574 -0.408673,0.0883 -0.857943,0.19158 -0.273987,0.063 -1.052055,0.23944 -1.729041,0.3921 -0.676972,0.15265 -1.272487,0.29351 -1.323335,0.31303 -0.07753,0.0298 -0.07204,-0.004 0.03399,-0.20904 0.06956,-0.13449 0.144335,-0.28189 0.166222,-0.32754 0.02197,-0.0456 0.183822,-0.35427 0.359825,-0.68576 0.293469,-0.55272 0.409091,-0.77735 0.538011,-1.04517 0.02602,-0.054 0.172198,-0.33416 0.324979,-0.6227 0.152782,-0.28855 0.258088,-0.52501 0.234017,-0.52548 -0.02406,-5.5e-4 -0.01647,-0.0191 0.017,-0.0416 0.08904,-0.0596 0.520464,-0.93911 0.520464,-1.06101 0,-0.0768 -0.08368,-0.1339 -0.318272,-0.21731 -0.175036,-0.0622 -0.529983,-0.19115 -0.788751,-0.28654 -0.258754,-0.0954 -0.513142,-0.18214 -0.565285,-0.19281 -0.05217,-0.0105 -0.17667,-0.0558 -0.276746,-0.10029 -0.228146,-0.10146 -1.592079,-0.55105 -1.704106,-0.56166 -0.04563,-0.004 -0.132842,-0.0331 -0.193733,-0.0639 -0.06093,-0.0309 -0.210325,-0.085 -0.332105,-0.12016 -0.121729,-0.0353 -0.57011,-0.1666 -0.996317,-0.29179 -1.330997,-0.39101 -2.000621,-0.57248 -2.309976,-0.626 -0.08316,-0.0144 -0.170394,-0.0376 -0.193733,-0.0516 -0.05256,-0.0316 -2.537939,-0.60569 -3.142083,-0.72576 -0.243535,-0.0484 -0.492615,-0.0982 -0.553505,-0.11074 -0.06093,-0.0131 -0.446956,-0.0871 -0.857943,-0.1656 -0.410974,-0.0786 -0.884225,-0.16944 -1.051663,-0.20194 -0.706744,-0.13715 -2.966591,-0.48339 -4.095972,-0.62756 -0.136987,-0.0175 -0.435882,-0.0566 -0.664211,-0.0868 -1.00879,-0.13367 -3.709395,-0.40135 -3.807654,-0.37741 -0.02157,0.005 -0.163765,-0.008 -0.315984,-0.0301 -1.03188,-0.14791 -5.310837,-0.30905 -8.21961,-0.30954 -4.886788,0.40906 -9.966122,0.57994 -11.218413,3.90635 -0.05073,0.76192 0.126174,1.93499 0.395362,2.62152 0.04184,0.10656 0.133797,0.34318 0.204494,0.52584 0.07073,0.18266 0.141223,0.34455 0.15673,0.35977 0.01556,0.0152 0.100154,0.17167 0.18811,0.34768 0.160627,0.32145 0.681052,1.15701 0.818274,1.31376 0.0404,0.0462 0.120682,0.15826 0.178487,0.24908 0.05779,0.0909 0.138569,0.20251 0.179585,0.24816 0.04106,0.0456 0.260782,0.3072 0.488365,0.58119 0.581028,0.6995 2.515804,2.58051 2.583624,2.51183 0.01177,-0.0118 0.124997,0.0786 0.252256,0.20037 0.413994,0.39595 1.359671,1.13469 1.452569,1.13469 0.03216,0 0.05858,0.0201 0.05858,0.0447 0,0.0514 0.477618,0.39812 0.548353,0.39812 0.02576,0 0.0795,0.0392 0.119245,0.0872 0.03975,0.048 0.323057,0.24984 0.629483,0.44867 0.306413,0.19883 0.619403,0.40858 0.6955,0.4661 0.153553,0.1161 0.502185,0.31195 0.568423,0.31938 0.0234,0.003 0.09231,0.0511 0.153148,0.10774 0.0608,0.0566 0.178644,0.13695 0.261853,0.17845 0.08316,0.0414 0.264965,0.1542 0.403927,0.25046 0.138948,0.0962 0.350672,0.22119 0.470478,0.27762 0.119767,0.0565 0.322129,0.17259 0.449597,0.25813 0.127482,0.0855 0.339193,0.20568 0.470479,0.26702 0.131299,0.0613 0.338355,0.17222 0.460123,0.24644 0.121728,0.0743 0.514528,0.28372 0.872783,0.46558 l 0.651372,0.33065 -0.20856,0.0584 c -0.114668,0.0322 -1.528692,0.38341 -3.142175,0.78054 -1.61347,0.39713 -3.830274,0.94624 -4.926222,1.22027 -1.095948,0.27402 -2.066154,0.51153 -2.155992,0.52781 -0.334342,0.0605 -0.555074,0.15975 -0.573967,0.2579 -0.01647,0.0858 0.276889,0.91906 0.510488,1.44973 0.04027,0.0914 0.153618,0.37778 0.252047,0.63655 0.09846,0.25875 0.212299,0.55765 0.253067,0.66421 0.04079,0.10656 0.139798,0.36807 0.220065,0.58118 0.08028,0.2131 0.18156,0.46595 0.225087,0.56186 0.04354,0.096 0.0791,0.1918 0.0791,0.21305 0,0.0213 0.03622,0.11715 0.08041,0.21304 0.07649,0.16602 0.283283,0.70235 0.754808,1.95761 0.11676,0.31101 0.353417,0.92125 0.525746,1.3561 0.172342,0.43485 0.318298,0.81553 0.324365,0.84597 0.0065,0.0305 0.05478,0.15499 0.108261,0.27675 0.08878,0.20218 0.237678,0.57961 0.458659,1.16237 0.04615,0.12173 0.1063,0.26465 0.133626,0.31752 0.06054,0.11715 0.0642,0.20883 0.0078,0.20683 -0.02288,-8.2e-4 -0.477408,-0.22169 -1.010162,-0.49085 z"
       id="path4524"
       inkscape:connector-curvature="0"
       sodipodi:nodetypes="cscccccccccccccssccccccccccccccccsccccccscccccscccccscccccccccccccccccccccsscccscssccccccccccsccccccscccccccscccccccccccssscsccsccccssccccccccccsssccccccccccccccccccccccccccccccscsccccccccccsccccssccccccscccssccscssssccsccssssccccccccscccccccccccccccscscscccsccccccccccccccccccccccccccccccccccccccccccccccccccccccccccccccccccccsccccccccccccccccccccccccccccccssssccccccccccccccscccccccscccccccccc" />
    <path
       style="fill:#007db3;fill-opacity:1;stroke-width:0.05444437"
       d="m 101.92946,98.74225 c -0.30687,-0.04454 -0.67751,-0.118198 -0.82364,-0.163592 -0.14614,-0.04547 -0.37968,-0.111609 -0.519,-0.147095 -0.13932,-0.03545 -0.26628,-0.08644 -0.28212,-0.113321 -0.0158,-0.02688 -0.0713,-0.04889 -0.12326,-0.04889 -0.052,0 -0.319597,-0.106865 -0.59467,-0.237331 -0.921732,-0.437369 -1.632259,-0.884833 -2.058989,-1.296693 -0.127155,-0.122677 -0.246892,-0.222822 -0.266097,-0.222453 -0.0192,6.98e-4 -0.117616,-0.08117 -0.218675,-0.181288 -0.101046,-0.100011 -0.20867,-0.182119 -0.239122,-0.182304 -0.03038,0 -0.127081,-0.04098 -0.214759,-0.09053 -0.256005,-0.144933 -0.874849,-0.167044 -1.165236,-0.04163 -0.133394,0.05758 -0.242624,0.123468 -0.242737,0.146528 0,0.02306 -0.03402,0.04191 -0.07531,0.04191 -0.199671,0 -0.820887,0.849771 -1.128508,1.543722 l -0.177402,0.400158 -0.429546,0.01818 c -0.236248,0.01054 -0.475345,0 -0.531316,-0.02174 -0.09992,-0.03914 -0.101549,-0.27329 -0.08887,-12.857861 l 0.01293,-12.817962 h 0.620074 c 0.341064,0 0.631563,0.01318 0.645622,0.02793 0.01406,0.01529 0.04105,0.304019 0.06013,0.641508 0.01908,0.337474 0.06904,0.952484 0.111214,1.366662 0.04218,0.414192 0.0895,0.891132 0.105188,1.059876 0.01569,0.168745 0.05109,0.46997 0.0787,0.66939 0.02761,0.199421 0.07519,0.601055 0.105691,0.892515 0.0305,0.291462 0.09038,0.768403 0.133042,1.059864 0.222328,1.517617 0.410437,2.750481 0.476626,3.123824 0.0408,0.230109 0.125147,0.70705 0.187407,1.059864 0.189465,1.07354 0.524713,2.705586 0.693229,3.374845 0.03088,0.122677 0.149235,0.612215 0.262959,1.087758 0.113725,0.475545 0.245085,1.002689 0.291906,1.171433 0.04682,0.168745 0.09452,0.34446 0.106067,0.390474 0.163608,0.654473 0.857778,2.779088 0.937712,2.870009 0.02561,0.02912 0.04657,0.08486 0.04657,0.123863 0,0.039 0.06364,0.215984 0.141415,0.393267 0.07782,0.177296 0.144716,0.334893 0.148745,0.350231 0.08837,0.336606 0.575413,1.352787 0.969658,2.022941 0.619584,1.053195 1.297792,1.788576 1.978662,2.145514 0.39199,0.205494 0.41531,0.210449 0.98602,0.209316 0.80236,-0.0014 1.04376,-0.105153 1.73618,-0.744446 0.11184,-0.103307 0.20336,-0.20867 0.20336,-0.234208 0,-0.02556 0.0607,-0.115298 0.13504,-0.19938 0.15093,-0.170945 0.43018,-0.686362 0.40963,-0.756042 -0.008,-0.02477 0.008,-0.04507 0.0326,-0.04507 0.0252,0 0.0865,-0.119251 0.136,-0.264962 0.0496,-0.145737 0.11046,-0.304928 0.13528,-0.353776 0.10355,-0.203478 0.36728,-1.461957 0.42768,-2.04065 0.083,-0.794572 0.0412,-3.156582 -0.0748,-4.229754 -0.17075,-1.580512 -0.49971,-3.448163 -0.93832,-5.327225 -0.0609,-0.260786 -0.13084,-0.562011 -0.15549,-0.66939 -0.31096,-1.353788 -0.7814,-3.009092 -1.44261,-5.076203 -0.23064,-0.720991 -0.42894,-1.348544 -0.4407,-1.394571 -0.0357,-0.139689 -0.28633,-0.900962 -0.40409,-1.227211 -0.0609,-0.168744 -0.20341,-0.587785 -0.31669,-0.931203 -0.11322,-0.343431 -0.29135,-0.848583 -0.39578,-1.122573 -0.10443,-0.273988 -0.18986,-0.514678 -0.18986,-0.534866 0,-0.02016 -0.0394,-0.130056 -0.0875,-0.244103 -0.0481,-0.114113 -0.0931,-0.232508 -0.0999,-0.263183 -0.006,-0.03071 -0.11963,-0.34446 -0.25064,-0.697286 -0.487054,-1.311688 -0.837968,-2.272315 -0.994232,-2.721795 -0.08849,-0.254435 -0.207805,-0.580762 -0.265169,-0.725168 -0.221838,-0.558335 -0.495982,-1.32563 -0.4974,-1.39216 -6.65e-4,-0.03835 -0.01858,-0.0697 -0.03954,-0.0697 -0.02096,0 -0.05084,-0.05653 -0.0664,-0.125444 -0.01556,-0.06905 -0.151507,-0.464396 -0.302085,-0.878574 -0.150566,-0.414192 -0.304608,-0.840929 -0.342303,-0.948307 -0.03766,-0.107393 -0.21403,-0.596865 -0.39186,-1.087759 -0.177841,-0.490882 -0.352206,-0.98038 -0.387466,-1.087759 -0.03527,-0.107392 -0.08347,-0.245434 -0.107197,-0.3068 -0.09615,-0.249387 -0.368613,-1.034457 -0.522706,-1.506127 -0.09025,-0.276123 -0.186992,-0.552246 -0.215109,-0.613611 -0.02812,-0.0614 -0.110838,-0.299829 -0.18378,-0.529925 -0.140611,-0.443538 -0.442872,-1.384517 -0.474818,-1.478245 -0.01004,-0.03071 -0.02498,-0.08091 -0.03213,-0.11161 -0.0075,-0.0307 -0.03665,-0.118592 -0.06527,-0.19523 -0.02875,-0.07668 -0.10657,-0.327724 -0.173147,-0.557833 -0.06653,-0.230097 -0.217257,-0.744696 -0.33491,-1.143537 -0.295495,-1.001687 -0.669932,-2.445803 -0.737652,-2.844908 -0.01556,-0.09211 -0.05084,-0.211279 -0.0782,-0.264962 -0.02736,-0.05376 -0.03941,-0.09764 -0.02686,-0.09764 0.01255,0 0.0025,-0.09408 -0.0231,-0.209185 -0.04695,-0.213835 -0.211231,-1.237871 -0.311022,-1.93845 -0.09339,-0.655397 -0.118871,-1.128147 -0.11749,-2.175518 0.0013,-0.860759 0.02649,-1.354578 0.140323,-2.733338 0.02448,-0.297351 0.22554,-1.531085 0.31942,-1.960641 0.04117,-0.188615 0.08598,-0.406733 0.09941,-0.484701 0.07644,-0.442746 0.577723,-1.949006 0.85695,-2.575083 0.109457,-0.245447 0.199922,-0.477638 0.201051,-0.515984 9.92e-4,-0.03835 0.01695,-0.0697 0.03515,-0.0697 0.0182,0 0.115482,-0.14434 0.216202,-0.320753 0.100795,-0.176413 0.250131,-0.421163 0.331985,-0.54388 0.08184,-0.122678 0.205356,-0.310989 0.274432,-0.418369 0.38773,-0.602701 1.414124,-1.50722 2.119881,-1.868191 0.503688,-0.25761 1.31609,-0.530452 1.579426,-0.530452 0.08272,0 0.165126,-0.02517 0.183189,-0.05574 0.04029,-0.06852 1.389977,-0.07603 1.430037,-0.0079 0.0154,0.02635 0.15294,0.06338 0.30544,0.08223 0.40436,0.05034 1.02487,0.245316 1.46891,0.461722 0.21344,0.103968 0.41173,0.189115 0.44064,0.189115 0.0289,0 0.0815,0.02649 0.11674,0.0589 0.0353,0.03242 0.27939,0.217974 0.54242,0.412426 0.26304,0.194453 0.60272,0.476532 0.75485,0.626868 0.15213,0.150323 0.43622,0.3601 0.6313,0.466149 0.31628,0.171945 0.39856,0.192489 0.75959,0.189722 0.29258,-0.0026 0.47383,-0.03571 0.65335,-0.12057 0.28963,-0.136895 0.74881,-0.560166 0.69915,-0.644486 -0.0187,-0.03189 -0.009,-0.04163 0.0219,-0.0216 0.0616,0.04006 0.30713,-0.337963 0.50145,-0.772131 l 0.1249,-0.278904 h 1.00884 1.00883 l 0.0134,12.352447 c 0.0113,9.845171 0,12.361459 -0.0531,12.396812 -0.0949,0.06325 -1.03772,0.05667 -1.15296,-0.0079 -0.0766,-0.04296 -0.10431,-0.154658 -0.13506,-0.543878 -0.0213,-0.269365 -0.0458,-0.552498 -0.0545,-0.629201 -0.009,-0.07668 -0.0329,-0.415575 -0.0538,-0.753064 -0.021,-0.337475 -0.0464,-0.660957 -0.0566,-0.71883 -0.01,-0.05784 -0.0436,-0.472065 -0.0743,-0.920411 -0.0307,-0.44836 -0.0796,-0.990895 -0.10871,-1.205666 -0.0291,-0.214759 -0.11384,-0.917618 -0.18848,-1.561906 -0.0746,-0.644288 -0.18392,-1.522862 -0.24294,-1.952392 -0.059,-0.429516 -0.11686,-0.856252 -0.1285,-0.948293 -0.0113,-0.09211 -0.0826,-0.568981 -0.15766,-1.059877 -0.0751,-0.490881 -0.16984,-1.118435 -0.21065,-1.394558 -0.15019,-1.016181 -0.41005,-2.449783 -0.6168,-3.402727 -0.0599,-0.276124 -0.14389,-0.665213 -0.18664,-0.864634 -0.19937,-0.930162 -0.61432,-2.498103 -0.70099,-2.64869 -0.0173,-0.03018 -0.0345,-0.09289 -0.0383,-0.139451 -0.0113,-0.149664 -0.15103,-0.503031 -0.19813,-0.503031 -0.0251,0 -0.0319,-0.02333 -0.0152,-0.05179 0.0596,-0.101333 -0.7395,-1.980472 -0.94978,-2.233378 -0.0392,-0.04718 -0.10883,-0.163605 -0.15473,-0.258875 -0.0459,-0.09527 -0.29634,-0.402688 -0.55646,-0.683134 -0.39204,-0.422663 -0.54298,-0.543866 -0.88213,-0.708367 -0.45229,-0.21937 -0.56646,-0.247912 -1.14764,-0.286954 -1.13824,-0.07642 -2.23345,0.63028 -2.74979,1.774503 -0.261353,0.579153 -0.257763,0.568217 -0.390416,1.186559 -0.143511,0.66885 -0.194989,2.218224 -0.103181,3.106391 0.03628,0.35052 0.07218,0.700066 0.07983,0.776756 0.04218,0.420688 0.09439,0.772249 0.136708,0.920411 0.02623,0.09211 0.06163,0.305416 0.0787,0.47416 0.01707,0.168745 0.05197,0.382107 0.07782,0.474147 0.02573,0.09211 0.07607,0.343063 0.111967,0.557821 0.03577,0.214771 0.145557,0.729358 0.243842,1.14355 0.09828,0.414178 0.19252,0.82837 0.2094,0.920411 0.0169,0.09211 0.0619,0.267756 0.0998,0.390473 0.038,0.122677 0.12163,0.423943 0.18572,0.66939 0.0641,0.245448 0.14813,0.546673 0.18669,0.66939 0.0385,0.122677 0.19365,0.637317 0.34463,1.143537 0.15097,0.506233 0.34289,1.121228 0.4265,1.366676 0.0836,0.245447 0.20347,0.609421 0.26635,0.808841 0.0629,0.199433 0.13903,0.393966 0.16918,0.432324 0.0301,0.03835 0.0423,0.0697 0.0269,0.0697 -0.0232,0 0.12427,0.47055 0.2448,0.780946 0.0178,0.04599 0.16199,0.447662 0.32026,0.892529 0.15826,0.444867 0.38617,1.059863 0.50648,1.366663 0.12025,0.306812 0.21872,0.581275 0.21872,0.609948 0,0.02859 0.0501,0.166728 0.11134,0.3068 0.20061,0.458703 0.252,0.583304 0.4501,1.091422 0.1077,0.276122 0.23876,0.589906 0.29138,0.697285 0.0526,0.107392 0.13837,0.320754 0.19057,0.474147 0.0522,0.153406 0.12559,0.341678 0.16307,0.418368 0.0375,0.07668 0.0683,0.167454 0.0685,0.201661 0,0.03426 0.0452,0.122018 0.10005,0.195243 0.0549,0.07314 0.10142,0.158137 0.10355,0.188813 0.008,0.114376 0.24815,0.697285 0.28738,0.697285 0.0225,0 0.0408,0.03992 0.0408,0.08881 0,0.07813 0.74363,1.889445 1.17264,2.856266 0.0857,0.193122 0.15582,0.382079 0.15582,0.419898 0,0.03781 0.0321,0.118329 0.0714,0.178784 0.0393,0.06048 0.19715,0.423811 0.35076,0.807314 0.15362,0.383503 0.32254,0.797694 0.37539,0.920411 0.20497,0.475886 1.18352,3.102952 1.4441,3.876889 0.0879,0.260784 0.19114,0.549452 0.22962,0.641493 0.0385,0.09211 0.11109,0.305416 0.16145,0.474147 0.0503,0.168744 0.10557,0.331915 0.12276,0.362591 0.0172,0.0307 0.0352,0.08091 0.0397,0.111609 0.0148,0.09777 0.50286,1.667848 0.56358,1.812926 0.0321,0.07669 0.0634,0.177113 0.0694,0.223139 0.006,0.04599 0.0756,0.309594 0.15426,0.585717 0.0787,0.276123 0.16411,0.577348 0.1897,0.66939 0.4287,1.541046 1.00027,4.420543 1.1405,5.745593 0.0487,0.460205 0.0997,0.912044 0.11309,1.004085 0.0958,0.652154 0.14094,2.450429 0.087,3.465529 -0.0324,0.609751 -0.0702,1.171394 -0.0838,1.248096 -0.0137,0.07668 -0.0409,0.315168 -0.0605,0.529926 -0.12063,1.319686 -0.51742,3.056081 -1.01989,4.462604 -0.17424,0.487772 -0.24126,0.654 -0.44836,1.112176 -0.0546,0.120832 -0.0993,0.242377 -0.0993,0.270114 0,0.0278 -0.0476,0.113849 -0.10557,0.191316 -0.058,0.07748 -0.0925,0.163026 -0.0766,0.190092 0.016,0.02701 0.009,0.04929 -0.0151,0.04929 -0.0242,0 -0.10343,0.119252 -0.17583,0.264975 -0.44186,0.888721 -1.38882,2.106272 -2.20413,2.833945 -0.24565,0.219238 -1.13508,0.818948 -1.46131,0.985307 -1.05538,0.53816 -2.39105,0.74977 -3.6134,0.572434 z M 46.691125,98.032209 c -0.03803,-0.109237 -0.04293,-0.246778 -0.03402,-0.944552 0.01004,-0.746923 -0.03741,-0.687903 0.592936,-0.744156 1.221721,-0.108973 1.923059,-0.709026 2.151374,-1.840493 0.117741,-0.583713 0.121005,-54.516926 0.0038,-55.162717 -0.13908,-0.763077 -0.422513,-1.216484 -0.959114,-1.534312 -0.311085,-0.184268 -1.058427,-0.395033 -1.404998,-0.396258 -0.40106,-0.0014 -0.401425,-0.0026 -0.383035,-0.87333 0.0088,-0.422559 0.02774,-0.787812 0.0418,-0.811675 0.01406,-0.02385 2.114069,-0.04335 4.666692,-0.04335 h 4.641104 l 0.0841,0.404415 c 0.04619,0.22244 0.121381,0.630346 0.166883,0.90647 0.220169,1.334563 0.297391,1.786336 0.424345,2.482317 0.07557,0.414191 0.160683,0.916234 0.189215,1.115654 0.02849,0.19942 0.06238,0.400237 0.07531,0.446264 0.01293,0.04599 0.07393,0.3849 0.135691,0.753064 0.06163,0.368165 0.135666,0.807445 0.16436,0.976189 0.02875,0.168745 0.06377,0.382106 0.07782,0.474147 0.03665,0.238451 0.205633,1.208276 0.369429,2.11974 0.0772,0.429529 0.171766,0.981776 0.210202,1.22721 0.0841,0.537568 0.295219,1.778549 0.483843,2.844908 0.152988,0.86495 0.265947,1.515984 0.314537,1.81294 0.08172,0.499538 0.259909,1.553275 0.504555,2.984359 0.146862,0.859046 0.304282,1.787825 0.349834,2.063948 0.04557,0.276124 0.106444,0.61501 0.135202,0.753065 0.02887,0.138067 0.07582,0.414191 0.10431,0.613611 0.02862,0.19942 0.156113,0.952484 0.283407,1.673475 0.127293,0.720992 0.283194,1.624668 0.346433,2.008171 0.169268,1.026551 0.317788,1.890762 0.373897,2.175517 0.02724,0.138068 0.124017,0.70286 0.215022,1.255106 0.09113,0.552247 0.224135,1.330412 0.295708,1.729253 0.07155,0.398854 0.141491,0.800488 0.155373,0.892529 0.01393,0.09211 0.04858,0.305402 0.07707,0.474147 0.214696,1.27018 0.259859,1.581222 0.534593,3.681658 0.07933,0.606773 0.411428,3.747924 0.448169,4.239452 0.0172,0.23011 0.04167,0.481131 0.05435,0.557847 0.01268,0.07668 0.03665,0.352827 0.05335,0.613586 0.01669,0.260785 0.05259,0.624786 0.07971,0.808867 0.02711,0.184083 0.07594,0.560615 0.108452,0.836712 0.03251,0.276123 0.06916,0.512676 0.08147,0.525682 0.01255,0.01317 0.01632,-8.973569 0.0088,-19.970143 l -0.01368,-19.993763 -0.132842,-0.359995 c -0.09854,-0.266859 -0.213114,-0.443668 -0.443036,-0.683344 -0.170599,-0.177823 -0.335361,-0.323336 -0.366139,-0.323336 -0.03075,0 -0.154244,-0.04678 -0.274345,-0.103832 -0.376797,-0.17914 -0.577873,-0.233219 -0.997963,-0.268375 -0.224185,-0.01871 -0.439395,-0.05468 -0.478245,-0.07985 -0.07883,-0.051 -0.132816,-1.144051 -0.07305,-1.478377 l 0.03377,-0.1893 h 3.977279 c 3.57775,0 3.98053,0.0092 4.009538,0.08828 0.0177,0.04849 0.03226,0.411622 0.03226,0.806879 0,0.834418 0.02184,0.801186 -0.557953,0.850665 -0.204591,0.0174 -0.4586,0.0701 -0.564492,0.117012 -0.105942,0.04691 -0.203875,0.07326 -0.217746,0.05876 -0.01381,-0.0145 -0.154406,0.0365 -0.31229,0.113454 -0.471027,0.229556 -0.814661,0.612611 -1.013591,1.129899 l -0.12364,0.321611 -0.02661,29.45316 -0.02661,29.453159 -2.352238,0.0145 -2.352275,0.0145 -0.04757,-0.126104 c -0.02611,-0.06931 -0.08624,-0.377099 -0.13347,-0.683911 -0.0472,-0.306812 -0.120628,-0.733548 -0.16313,-0.948293 -0.04243,-0.214772 -0.09979,-0.541099 -0.127369,-0.725182 -0.06163,-0.410989 -0.205269,-1.254987 -0.517546,-3.040138 -0.131486,-0.751679 -0.272989,-1.580049 -0.31445,-1.840822 -0.04145,-0.260797 -0.122912,-0.737738 -0.180967,-1.059875 -0.05812,-0.322151 -0.202331,-1.163065 -0.320587,-1.868705 -0.118243,-0.705666 -0.238583,-1.395968 -0.267428,-1.534036 -0.02887,-0.138055 -0.125901,-0.70286 -0.21575,-1.255107 -0.08987,-0.552246 -0.235432,-1.405719 -0.323537,-1.896587 -0.208746,-1.163065 -0.30801,-1.739571 -0.340973,-1.980287 -0.01469,-0.107393 -0.07343,-0.458809 -0.13062,-0.780947 -0.162176,-0.914442 -0.58317,-3.356266 -0.610697,-3.542206 -0.01368,-0.09211 -0.0482,-0.305403 -0.07682,-0.474134 -0.121004,-0.714033 -0.278436,-1.629029 -0.374223,-2.175517 -0.05649,-0.322151 -0.13962,-0.824193 -0.184796,-1.115668 -0.04519,-0.291461 -0.116235,-0.70564 -0.157947,-0.920411 -0.04167,-0.214746 -0.151619,-0.842298 -0.244306,-1.394545 -0.09264,-0.552247 -0.202118,-1.192357 -0.24319,-1.422467 -0.04105,-0.230096 -0.133381,-0.769798 -0.205155,-1.199328 -0.0718,-0.429516 -0.167499,-0.99432 -0.212725,-1.255106 -0.04519,-0.260772 -0.128172,-0.750271 -0.184307,-1.087759 -0.05611,-0.337475 -0.211419,-1.241152 -0.345077,-2.00817 -0.13367,-0.767005 -0.256156,-1.482409 -0.272198,-1.589801 -0.01607,-0.107393 -0.07494,-0.446251 -0.130845,-0.753064 -0.123014,-0.674661 -0.378931,-2.156095 -0.44817,-2.593886 -0.01695,-0.107393 -0.09063,-0.546659 -0.16362,-0.97619 -0.07305,-0.429529 -0.180892,-1.069627 -0.239738,-1.422453 -0.05887,-0.352826 -0.139758,-0.81721 -0.179825,-1.031981 -0.04004,-0.214758 -0.09941,-0.55363 -0.132025,-0.753064 -0.05209,-0.319489 -0.237855,-1.390987 -0.381868,-2.2034 -0.05699,-0.321399 -0.07155,-0.421149 -0.152976,-1.04525 -0.03289,-0.251759 -0.06753,-0.470984 -0.07707,-0.487192 -0.01004,-0.01621 -0.03125,-0.154987 -0.04833,-0.30838 -0.142244,-1.278522 -0.460961,-3.770273 -0.499446,-3.904784 l -0.04795,-0.167348 -0.03603,0.223139 c -0.01983,0.122677 -0.0295,10.929189 -0.02146,24.014367 l 0.01456,23.791227 0.114854,0.318685 c 0.128775,0.357346 0.426981,0.824865 0.526132,0.824865 0.03577,0 0.07745,0.03387 0.09251,0.07524 0.07079,0.193674 0.861632,0.503808 1.445179,0.566741 0.175356,0.01897 0.384591,0.0473 0.464952,0.06325 l 0.146134,0.02886 v 0.83231 0.832297 h -3.987057 c -3.141266,0 -3.992191,-0.01476 -4.011308,-0.0697 z m 23.602671,0.03189 c -0.01908,-0.02003 -0.03477,-0.395836 -0.03477,-0.834998 0,-0.917209 -0.06578,-0.824167 0.622509,-0.880946 0.714355,-0.0589 1.447338,-0.435789 1.773661,-0.911859 0.09013,-0.131506 0.215575,-0.382568 0.278751,-0.557835 l 0.114854,-0.318697 0.01368,-27.556546 c 0.0075,-15.15611 -0.0025,-27.594206 -0.02172,-27.640234 -0.01946,-0.04599 -0.03176,-0.101994 -0.02736,-0.124522 0.01983,-0.09975 -0.176724,-0.597285 -0.336516,-0.851666 -0.325884,-0.518818 -0.974653,-0.869009 -1.759615,-0.949836 -0.172106,-0.01779 -0.391257,-0.04467 -0.487019,-0.05995 l -0.174102,-0.02781 0.01469,-0.819989 0.01469,-0.81999 h 6.004623 c 4.704437,0 6.096695,0.01581 6.429759,0.07314 0.233788,0.04032 0.484873,0.08052 0.557953,0.08933 0.146725,0.01792 0.560526,0.137699 1.169039,0.338569 0.766046,0.252866 1.708389,0.784899 2.34448,1.323693 0.31765,0.269047 1.050219,1.032467 1.307806,1.362866 0.123013,0.157861 0.380575,0.534392 0.572249,0.836738 0.191687,0.302346 0.369291,0.577323 0.394684,0.611056 0.04833,0.06403 0.467488,0.961299 0.740251,1.584254 0.188411,0.430347 0.611312,1.719318 0.732066,2.231295 0.04707,0.199421 0.106318,0.389999 0.131687,0.423508 0.02536,0.03347 0.03439,0.07326 0.01996,0.08842 -0.01444,0.01516 0.02272,0.22617 0.08259,0.469021 0.262984,1.067941 0.501115,2.793148 0.70002,5.071473 0.107699,1.23368 0.09013,6.08295 -0.02686,7.379115 -0.366241,4.0613 -0.934235,6.509173 -2.073713,8.937267 -0.122386,0.260784 -0.237114,0.486704 -0.254964,0.502042 -0.01782,0.01528 -0.07193,0.10871 -0.120126,0.207655 -0.0851,0.174372 -0.306403,0.543683 -0.39368,0.656978 -0.0236,0.03071 -0.101674,0.143642 -0.173448,0.251021 -0.287951,0.430874 -1.334781,1.617697 -1.42689,1.617697 -0.02322,0 -0.08774,0.05297 -0.143373,0.117671 -0.171591,0.199473 -1.092846,0.815996 -1.565493,1.047648 -0.525957,0.257807 -1.326358,0.557834 -1.591188,0.596468 -0.102302,0.01489 -0.269675,0.04994 -0.371964,0.07787 -0.423981,0.115562 -1.155934,0.186375 -2.258383,0.218329 l -1.169039,0.03387 -0.01343,11.145462 c -0.01444,12.024102 -0.02347,11.595495 0.255817,12.166085 0.314097,0.641704 1.031051,1.092765 1.870816,1.176979 0.182135,0.01832 0.409496,0.04585 0.505245,0.06128 l 0.174114,0.02807 -0.01469,0.81999 -0.01469,0.819989 -6.169122,0.01331 c -3.393017,0.0079 -6.184763,-0.0026 -6.203892,-0.02319 z M 81.550905,69.982844 c 0.761188,-0.09949 1.392283,-0.427039 1.818034,-0.943563 0.409822,-0.497194 0.805096,-1.682119 0.967649,-2.900699 0.03477,-0.260786 0.08548,-0.637317 0.112595,-0.836738 0.05774,-0.424139 0.13559,-1.812399 0.210302,-3.749215 0.02925,-0.758151 0.05272,-4.310095 0.05222,-7.893216 -9.92e-4,-7.429925 -0.06239,-9.73969 -0.315265,-11.869892 -0.05523,-0.465701 -0.136131,-1.005456 -0.161047,-1.075096 -0.01883,-0.05257 -0.02159,-0.06351 -0.162754,-0.654157 -0.439383,-1.83762 -1.354187,-2.539229 -3.407854,-2.613651 -0.611802,-0.02214 -0.731564,-0.01318 -0.757221,0.05705 -0.04544,0.124259 -0.03527,32.390109 0.01004,32.461594 0.02146,0.03373 0.07494,0.07577 0.118745,0.09329 0.100294,0.0402 0.954507,-0.0026 1.514443,-0.07563 z M 32.318243,97.24532 v -0.633483 l 0.370144,-0.0361 c 0.810042,-0.07906 1.348576,-0.321742 1.813365,-0.817314 0.176611,-0.188286 0.329374,-0.411253 0.368022,-0.537146 0.0364,-0.11833 0.0841,-0.240348 0.106068,-0.271024 0.154218,-0.215035 0.158687,-1.008394 0.158687,-28.137756 0,-26.966244 -0.0025,-27.497012 -0.102176,-27.818781 -0.09819,-0.465333 -0.399166,-0.806436 -0.598736,-1.085439 -0.383437,-0.374042 -1.290194,-0.72086 -1.884661,-0.72086 h -0.234353 l 0.01506,-0.627553 0.01506,-0.627554 5.991355,-0.01423 c 4.774366,-0.01186 5.992008,2.6e-5 5.994644,0.05574 0.0075,0.14724 -0.01004,1.183621 -0.01983,1.192674 -0.005,0.0052 -0.165453,0.02556 -0.355421,0.04533 -0.631685,0.06536 -1.261135,0.285887 -1.431509,0.501409 -0.03816,0.04823 -0.101799,0.08776 -0.141352,0.08776 -0.102553,0 -0.494036,0.534985 -0.632714,0.864621 -0.06452,0.153406 -0.146461,0.479734 -0.182047,0.725181 -0.05033,0.347331 -0.06088,6.498933 -0.04745,27.751789 0.01632,25.878776 0.02222,27.322562 0.110837,27.631339 0.104311,0.363408 0.283295,0.704374 0.503702,0.959876 0.130958,0.151812 0.666292,0.549861 0.751171,0.558532 0.0182,0.0014 0.12477,0.04533 0.236787,0.09672 0.111967,0.05126 0.410889,0.121886 0.664221,0.156701 0.253332,0.03491 0.490496,0.07221 0.527036,0.08288 0.04795,0.0141 0.0664,0.190092 0.0664,0.634827 V 97.87881 H 38.349357 32.31816 Z"
       id="path4524-7"
       inkscape:connector-curvature="0"
       sodipodi:nodetypes="ccccsccccccccsccccccscsssssccccscccsccscccsccscccccccccccsccccccsscccccccccccccccsccccccccsccccscccsssscccccccccccccccscsscccscccccscccccscccccsccsccccccccscccsccccccccsscsccsccccccccccccccccsscscccccccsccccccscccccccccccccccccscccccccccssscscccscccccscscccccccccccccccccccccccccccccccccccccccccccccccccccsccccccscccsccccsccccccccsccccccccccsccccccccscccccccccccccccccccccccccccccccccccccsccsccccccccscccccccccscccc" />
  </g>
</svg>
